<?xml version="1.0" encoding="UTF-8"?>
<svg version="1.1" xmlns="http://www.w3.org/2000/svg" width="100" height="100">
<path d="M0 0 C0.87552521 -0.00570007 1.75105042 -0.01140015 2.65310669 -0.01727295 C4.50749501 -0.02672748 6.36190017 -0.03325873 8.21630859 -0.03710938 C11.05205639 -0.04681253 13.88707872 -0.07783025 16.72265625 -0.109375 C18.52343319 -0.11590529 20.32421532 -0.12115566 22.125 -0.125 C22.97303192 -0.1373468 23.82106384 -0.1496936 24.6947937 -0.16241455 C29.36100034 -0.1447792 31.53318928 0.15077538 35.1953125 3.203125 C37.9798522 3.60904318 37.9798522 3.60904318 41.02734375 3.50390625 C42.15591797 3.51228516 43.28449219 3.52066406 44.44726562 3.52929688 C46.80931925 3.520227 49.17135861 3.4995094 51.53320312 3.46679688 C58.161914 3.53847901 62.26781231 3.88039588 67.0300293 8.71948242 C70.72537355 13.42440742 69.42066277 20.13628386 69.43554688 25.86108398 C69.4452604 28.12846449 69.47628643 30.39494139 69.5078125 32.66210938 C69.51434192 34.10155711 69.51959264 35.54101134 69.5234375 36.98046875 C69.5327832 38.29265381 69.54212891 39.60483887 69.55175781 40.95678711 C69.1953125 44.203125 69.1953125 44.203125 67.79980469 46.15454102 C66.1953125 47.203125 66.1953125 47.203125 64.1953125 47.203125 C64.37995616 51.54496702 64.37995616 51.54496702 66.1953125 55.203125 C66.7600555 60.20248925 66.95113078 64.02215893 64.1953125 68.328125 C63.5353125 68.946875 62.8753125 69.565625 62.1953125 70.203125 C62.74960938 70.66203125 63.30390625 71.1209375 63.875 71.59375 C64.59945312 72.20734375 65.32390625 72.8209375 66.0703125 73.453125 C66.78960937 74.05640625 67.50890625 74.6596875 68.25 75.28125 C70.84164307 77.84166846 72.01338295 79.83983471 72.49609375 83.45703125 C72.49996094 84.21886719 72.50382812 84.98070313 72.5078125 85.765625 C72.52457031 86.53003906 72.54132813 87.29445313 72.55859375 88.08203125 C72.1953125 90.203125 72.1953125 90.203125 71.05078125 91.953125 C67.73624927 94.18607286 63.89196998 93.6278188 60.0078125 93.69921875 C58.615625 93.94865234 58.615625 93.94865234 57.1953125 94.203125 C56.74647202 94.86284302 56.29763153 95.52256104 55.83518982 96.20227051 C54.1953125 98.203125 54.1953125 98.203125 51.88734436 98.71105957 C50.9822966 98.71424194 50.07724884 98.71742432 49.14477539 98.72070312 C47.60286278 98.73961609 47.60286278 98.73961609 46.02980042 98.75891113 C44.92039597 98.75081421 43.81099152 98.74271729 42.66796875 98.734375 C40.95727455 98.74011536 40.95727455 98.74011536 39.21202087 98.74597168 C36.79864622 98.74869531 34.38524228 98.74130277 31.97192383 98.72460938 C28.27553465 98.70322751 24.58109372 98.72438749 20.88476562 98.75 C18.54166237 98.74735642 16.19856033 98.74223082 13.85546875 98.734375 C12.19439842 98.74652039 12.19439842 98.74652039 10.49977112 98.75891113 C9.46867722 98.74630249 8.43758331 98.73369385 7.37524414 98.72070312 C6.46940079 98.71752075 5.56355743 98.71433838 4.63026428 98.71105957 C1.46706426 98.05121133 0.3479554 96.53863663 -1.8046875 94.203125 C-4.54027352 93.54741441 -4.54027352 93.54741441 -7.4296875 93.515625 C-12.67155141 93.26969305 -12.67155141 93.26969305 -14.8046875 92.203125 C-14.8046875 91.543125 -14.8046875 90.883125 -14.8046875 90.203125 C-15.4646875 90.203125 -16.1246875 90.203125 -16.8046875 90.203125 C-18.72596415 86.25945188 -18.96841235 83.69960298 -17.7421875 79.578125 C-16.2233483 75.58613169 -14.56755397 73.40577855 -10.8046875 71.203125 C-9.479468 70.83886937 -8.14672933 70.49945695 -6.8046875 70.203125 C-7.6090625 69.171875 -8.4134375 68.140625 -9.2421875 67.078125 C-11.57875183 63.77905547 -12.71676118 61.33566216 -12.8046875 57.203125 C-12.17841622 55.19011017 -11.50633392 53.19112318 -10.8046875 51.203125 C-10.35291452 48.21258432 -10.05913761 45.21635002 -9.8046875 42.203125 C-10.76375 41.77 -10.76375 41.77 -11.7421875 41.328125 C-13.8046875 40.203125 -13.8046875 40.203125 -14.8046875 38.203125 C-15.063581 33.69052195 -15.07573464 29.17411943 -15.09985352 24.6550293 C-15.11704401 22.40936927 -15.1609275 20.16519067 -15.20507812 17.91992188 C-15.21520751 16.48698997 -15.22372285 15.05404557 -15.23046875 13.62109375 C-15.24505127 12.31938232 -15.25963379 11.0176709 -15.2746582 9.67651367 C-14.73036393 5.65382555 -13.64362954 4.04272764 -10.8046875 1.203125 C-7.45563829 -0.4713996 -3.68388499 0.01837393 0 0 Z " fill="#ECECED" transform="translate(23.8046875,1.796875)"/>
<path d="M0 0 C1.7890625 1.12109375 1.7890625 1.12109375 3.4375 2.5 C7.10511996 5.55778151 10.12808323 5.39497568 14.765625 5.078125 C17 5 17 5 20 6 C20.33 5.01 20.66 4.02 21 3 C24.65102626 -0.08055341 28.02426814 -0.57270302 32.6484375 -0.42578125 C36.70040148 0.30788 39.89207322 2.35416306 43 5 C45.07912902 8.11869354 45.30503876 9.27054261 45.5625 12.875 C45.77916863 15.68760413 46.03591331 18.13766768 46.75 20.875 C47 23 47 23 45.6875 25.3125 C45.130625 25.869375 44.57375 26.42625 44 27 C43.34 27 42.68 27 42 27 C41.814375 28.11375 41.814375 28.11375 41.625 29.25 C41.0421624 31.81448542 40.21335551 33.69166512 39 36 C39.59167969 36.15855469 40.18335937 36.31710938 40.79296875 36.48046875 C46.01862861 38.02344499 49.64579556 39.45559399 53 44 C53 45.65 53 47.3 53 49 C47.72 49 42.44 49 37 49 C37 50.65 37 52.3 37 54 C21.82 54 6.64 54 -9 54 C-9 52.35 -9 50.7 -9 49 C-14.28 49 -19.56 49 -25 49 C-24 42 -24 42 -21.75 39.6875 C-18.08196421 37.43665986 -15.33879387 36 -11 36 C-11.495 35.071875 -11.99 34.14375 -12.5 33.1875 C-14 30 -14 30 -14 27 C-14.639375 26.79375 -15.27875 26.5875 -15.9375 26.375 C-18 25 -18 25 -18.8125 21.9375 C-18.874375 20.968125 -18.93625 19.99875 -19 19 C-18.67 18.67 -18.34 18.34 -18 18 C-17.86801094 16.25187827 -17.76944031 14.50118145 -17.6875 12.75 C-17.29239329 7.99019884 -16.70563299 5.28213208 -13 2 C-8.75231548 -0.4881834 -4.82526246 -0.84812634 0 0 Z " fill="#FCC5A2" transform="translate(36,39)"/>
<path d="M0 0 C1.18154663 -0.00430527 1.18154663 -0.00430527 2.38696289 -0.00869751 C4.05127685 -0.01073772 5.71561481 -0.00521082 7.37988281 0.00732422 C9.92827947 0.02337941 12.47509021 0.00747506 15.0234375 -0.01171875 C16.6406285 -0.00973631 18.25781852 -0.00589261 19.875 0 C20.63756104 -0.00607269 21.40012207 -0.01214539 22.18579102 -0.0184021 C27.56375847 0.05314261 27.56375847 0.05314261 29.56054688 1.89794922 C30.01494141 2.39311035 30.46933594 2.88827148 30.9375 3.3984375 C33.79111215 3.85633055 33.79111215 3.85633055 37.03125 3.8046875 C38.82369141 3.83755859 38.82369141 3.83755859 40.65234375 3.87109375 C41.90144531 3.88011719 43.15054688 3.88914062 44.4375 3.8984375 C46.90638336 3.91627257 49.37521728 3.94691775 51.84375 3.9921875 C53.48827148 4.00282227 53.48827148 4.00282227 55.16601562 4.01367188 C57.9375 4.3984375 57.9375 4.3984375 59.80004883 5.52270508 C61.49043587 8.31026543 61.27443 10.57792723 61.23046875 13.81640625 C61.22080078 15.07001953 61.21113281 16.32363281 61.20117188 17.61523438 C61.17603516 18.92556641 61.15089844 20.23589844 61.125 21.5859375 C61.10994967 22.92120913 61.09626187 24.25649687 61.08398438 25.59179688 C61.04857694 28.86108326 60.9991889 32.12955843 60.9375 35.3984375 C59.125 35.1484375 59.125 35.1484375 56.9375 34.3984375 C56.29361328 33.3930896 56.29361328 33.3930896 55.63671875 32.36743164 C54.00997906 30.05208434 54.00997906 30.05208434 50.70703125 29.90014648 C49.40121094 29.89829346 48.09539062 29.89644043 46.75 29.89453125 C46.05108643 29.88511002 45.35217285 29.87568878 44.63208008 29.86598206 C42.40025493 29.83731181 40.16949453 29.83425461 37.9375 29.8359375 C35.70566101 29.83233156 33.47459678 29.82282185 31.24291992 29.79518127 C29.21806342 29.77065834 27.19297344 29.76845843 25.16796875 29.76733398 C21.58520526 29.35820795 21.22918328 28.90907401 18.9375 26.3984375 C15.15701311 25.73377048 11.33244733 25.88906148 7.5 25.8984375 C5.92508789 25.85589844 5.92508789 25.85589844 4.31835938 25.8125 C1.43175285 25.8051409 -1.22579869 25.85952705 -4.0625 26.3984375 C-6.63154026 28.75424025 -6.63154026 28.75424025 -8.0625 31.3984375 C-9.0525 31.3984375 -10.0425 31.3984375 -11.0625 31.3984375 C-11.13671454 27.46582806 -11.19113136 23.53349028 -11.22729492 19.6003418 C-11.24978333 17.60516049 -11.28790198 15.61017537 -11.32617188 13.61523438 C-11.33583984 12.36162109 -11.34550781 11.10800781 -11.35546875 9.81640625 C-11.3711792 8.65906982 -11.38688965 7.5017334 -11.40307617 6.30932617 C-11.0625 3.3984375 -11.0625 3.3984375 -10.0480957 1.5222168 C-6.86634453 -0.27854561 -3.55924947 -0.02834426 0 0 Z " fill="#6F7BBF" transform="translate(25.0625,6.6015625)"/>
<path d="M0 0 C1.7890625 1.12109375 1.7890625 1.12109375 3.4375 2.5 C7.10511996 5.55778151 10.12808323 5.39497568 14.765625 5.078125 C17 5 17 5 20 6 C20.33 5.01 20.66 4.02 21 3 C24.65102626 -0.08055341 28.02426814 -0.57270302 32.6484375 -0.42578125 C36.70040148 0.30788 39.89207322 2.35416306 43 5 C45.07912902 8.11869354 45.30503876 9.27054261 45.5625 12.875 C45.77916863 15.68760413 46.03591331 18.13766768 46.75 20.875 C47 23 47 23 45.6875 25.3125 C45.130625 25.869375 44.57375 26.42625 44 27 C43.34 27 42.68 27 42 27 C41.814375 28.11375 41.814375 28.11375 41.625 29.25 C41.0421624 31.81448542 40.21335551 33.69166512 39 36 C39.59167969 36.15855469 40.18335937 36.31710938 40.79296875 36.48046875 C46.01862861 38.02344499 49.64579556 39.45559399 53 44 C53 45.65 53 47.3 53 49 C47.72 49 42.44 49 37 49 C37 50.65 37 52.3 37 54 C21.82 54 6.64 54 -9 54 C-9 52.35 -9 50.7 -9 49 C-14.28 49 -19.56 49 -25 49 C-24 42 -24 42 -21.75 39.6875 C-18.08196421 37.43665986 -15.33879387 36 -11 36 C-11.495 35.071875 -11.99 34.14375 -12.5 33.1875 C-14 30 -14 30 -14 27 C-14.639375 26.79375 -15.27875 26.5875 -15.9375 26.375 C-18 25 -18 25 -18.8125 21.9375 C-18.874375 20.968125 -18.93625 19.99875 -19 19 C-18.67 18.67 -18.34 18.34 -18 18 C-17.86801094 16.25187827 -17.76944031 14.50118145 -17.6875 12.75 C-17.29239329 7.99019884 -16.70563299 5.28213208 -13 2 C-8.75231548 -0.4881834 -4.82526246 -0.84812634 0 0 Z M-1.6875 11.875 C-4.32042929 13.22934852 -6.56573366 14.16457706 -9.4375 15 C-10.7059375 15.495 -10.7059375 15.495 -12 16 C-12.73323796 18.01508358 -12.73323796 18.01508358 -13 20 C-13.99 20.33 -14.98 20.66 -16 21 C-15.67 21.99 -15.34 22.98 -15 24 C-13.68 24 -12.36 24 -11 24 C-10.855625 25.134375 -10.71125 26.26875 -10.5625 27.4375 C-10.38828522 30.80777201 -10.38828522 30.80777201 -9 32 C-8.95936168 33.66617115 -8.957279 35.33388095 -9 37 C-9.85464844 37.39832031 -10.70929687 37.79664062 -11.58984375 38.20703125 C-12.69457031 38.73683594 -13.79929687 39.26664063 -14.9375 39.8125 C-16.03964844 40.33457031 -17.14179688 40.85664062 -18.27734375 41.39453125 C-21.28740777 42.76794721 -21.28740777 42.76794721 -22 46 C-16.72 46.33 -11.44 46.66 -6 47 C-6 48.32 -6 49.64 -6 51 C7.2 51 20.4 51 34 51 C34 49.68 34 48.36 34 47 C41.92 46.505 41.92 46.505 50 46 C47.72712069 41.45424137 46.86412308 41.1291678 42.375 39.25 C41.37210938 38.82203125 40.36921875 38.3940625 39.3359375 37.953125 C38.56507812 37.63859375 37.79421875 37.3240625 37 37 C36.79913557 33.28400809 36.8480563 32.22791555 39 29 C39.16713569 26.37468476 39.16713569 26.37468476 39 24 C40.65 23.67 42.3 23.34 44 23 C44 22.34 44 21.68 44 21 C43.01 20.67 42.02 20.34 41 20 C40.26953125 17.93359375 40.26953125 17.93359375 39.8125 15.4375 C39.65394531 14.61121094 39.49539062 13.78492188 39.33203125 12.93359375 C39.22246094 12.29550781 39.11289063 11.65742187 39 11 C34.43404059 11 30.6477055 12.20810233 27 15 C25.6368433 18.29429535 25.20969047 21.45555462 25 25 C24.34 25 23.68 25 23 25 C22.8453125 23.63875 22.8453125 23.63875 22.6875 22.25 C21.99585051 18.98038425 21.17865079 17.46282263 19 15 C17.989375 15.61875 16.97875 16.2375 15.9375 16.875 C12.36772915 18.92943955 8.990659 20.02269575 5 21 C5 22.32 5 23.64 5 25 C4.34 25 3.68 25 3 25 C3 20.05 3 15.1 3 10 C1.25683011 10 -0.16650551 11.08118573 -1.6875 11.875 Z " fill="#453E70" transform="translate(36,39)"/>
<path d="M0 0 C0.73541016 0.00202423 1.47082031 0.00404846 2.22851562 0.00613403 C2.97939453 0.00517731 3.73027344 0.00422058 4.50390625 0.00323486 C6.09440189 0.00255315 7.6849003 0.00440682 9.27539062 0.00857544 C11.71816217 0.01392386 14.16074984 0.00863019 16.60351562 0.00222778 C18.1451827 0.00288857 19.68684966 0.00416973 21.22851562 0.00613403 C21.96392578 0.0041098 22.69933594 0.00208557 23.45703125 0 C28.61356402 0.02399493 28.61356402 0.02399493 29.72851562 1.13894653 C29.82838537 3.98229701 29.86729444 6.79591816 29.85351562 9.63894653 C29.85931641 10.83584106 29.85931641 10.83584106 29.86523438 12.05691528 C29.8551233 18.01233886 29.8551233 18.01233886 28.72851562 19.13894653 C26.40022871 19.27351099 24.06811517 19.34265194 21.73632812 19.38504028 C20.29491589 19.41798253 18.85350979 19.45119412 17.41210938 19.48464966 C15.13204231 19.53205894 12.85199947 19.57647265 10.57177734 19.61575317 C8.37635871 19.65547527 6.1814603 19.70702422 3.98632812 19.76004028 C2.66777832 19.78509644 1.34922852 19.81015259 -0.00927734 19.83596802 C-3.41550086 19.8916294 -3.41550086 19.8916294 -6.27148438 22.13894653 C-6.30036251 18.65979712 -6.31824125 15.18067823 -6.33398438 11.70144653 C-6.34236328 10.70822388 -6.35074219 9.71500122 -6.359375 8.69168091 C-6.36259766 7.74744263 -6.36582031 6.80320435 -6.36914062 5.83035278 C-6.37437744 4.95580444 -6.37961426 4.0812561 -6.38500977 3.1802063 C-6.15485566 -0.95811306 -3.52330445 0.01639502 0 0 Z " fill="#70BEFE" transform="translate(23.271484375,9.861053466796875)"/>
<path d="M0 0 C1.18154663 -0.00430527 1.18154663 -0.00430527 2.38696289 -0.00869751 C4.05127685 -0.01073772 5.71561481 -0.00521082 7.37988281 0.00732422 C9.92827947 0.02337941 12.47509021 0.00747506 15.0234375 -0.01171875 C16.6406285 -0.00973631 18.25781852 -0.00589261 19.875 0 C20.63756104 -0.00607269 21.40012207 -0.01214539 22.18579102 -0.0184021 C27.56375847 0.05314261 27.56375847 0.05314261 29.56054688 1.89794922 C30.01494141 2.39311035 30.46933594 2.88827148 30.9375 3.3984375 C33.79111215 3.85633055 33.79111215 3.85633055 37.03125 3.8046875 C38.82369141 3.83755859 38.82369141 3.83755859 40.65234375 3.87109375 C41.90144531 3.88011719 43.15054688 3.88914062 44.4375 3.8984375 C46.90638336 3.91627257 49.37521728 3.94691775 51.84375 3.9921875 C53.48827148 4.00282227 53.48827148 4.00282227 55.16601562 4.01367188 C57.9375 4.3984375 57.9375 4.3984375 59.80004883 5.52270508 C61.49043587 8.31026543 61.27443 10.57792723 61.23046875 13.81640625 C61.22080078 15.07001953 61.21113281 16.32363281 61.20117188 17.61523438 C61.17603516 18.92556641 61.15089844 20.23589844 61.125 21.5859375 C61.10994967 22.92120913 61.09626187 24.25649687 61.08398438 25.59179688 C61.04857694 28.86108326 60.9991889 32.12955843 60.9375 35.3984375 C59.125 35.1484375 59.125 35.1484375 56.9375 34.3984375 C56.29361328 33.3930896 56.29361328 33.3930896 55.63671875 32.36743164 C54.00997906 30.05208434 54.00997906 30.05208434 50.70703125 29.90014648 C49.40121094 29.89829346 48.09539062 29.89644043 46.75 29.89453125 C46.05108643 29.88511002 45.35217285 29.87568878 44.63208008 29.86598206 C42.40025493 29.83731181 40.16949453 29.83425461 37.9375 29.8359375 C35.70566101 29.83233156 33.47459678 29.82282185 31.24291992 29.79518127 C29.21806342 29.77065834 27.19297344 29.76845843 25.16796875 29.76733398 C21.58520526 29.35820795 21.22918328 28.90907401 18.9375 26.3984375 C15.15701311 25.73377048 11.33244733 25.88906148 7.5 25.8984375 C5.92508789 25.85589844 5.92508789 25.85589844 4.31835938 25.8125 C1.43175285 25.8051409 -1.22579869 25.85952705 -4.0625 26.3984375 C-6.63154026 28.75424025 -6.63154026 28.75424025 -8.0625 31.3984375 C-9.0525 31.3984375 -10.0425 31.3984375 -11.0625 31.3984375 C-11.13671454 27.46582806 -11.19113136 23.53349028 -11.22729492 19.6003418 C-11.24978333 17.60516049 -11.28790198 15.61017537 -11.32617188 13.61523438 C-11.33583984 12.36162109 -11.34550781 11.10800781 -11.35546875 9.81640625 C-11.3711792 8.65906982 -11.38688965 7.5017334 -11.40307617 6.30932617 C-11.0625 3.3984375 -11.0625 3.3984375 -10.0480957 1.5222168 C-6.86634453 -0.27854561 -3.55924947 -0.02834426 0 0 Z M-8.0625 4.3984375 C-8.14935603 5.96016495 -8.16952219 7.52573094 -8.16015625 9.08984375 C-8.15693359 10.03408203 -8.15371094 10.97832031 -8.15039062 11.95117188 C-8.14201172 12.94439453 -8.13363281 13.93761719 -8.125 14.9609375 C-8.12048828 15.95802734 -8.11597656 16.95511719 -8.11132812 17.98242188 C-8.09950007 20.45448599 -8.08301849 22.92643268 -8.0625 25.3984375 C-7.0725 24.7384375 -6.0825 24.0784375 -5.0625 23.3984375 C-2.2434082 23.07958984 -2.2434082 23.07958984 1.13671875 22.984375 C2.34521484 22.94570313 3.55371094 22.90703125 4.79882812 22.8671875 C6.06146484 22.83625 7.32410156 22.8053125 8.625 22.7734375 C10.53635742 22.71542969 10.53635742 22.71542969 12.48632812 22.65625 C15.63657292 22.56186064 18.78680991 22.4762792 21.9375 22.3984375 C22.2675 23.7184375 22.5975 25.0384375 22.9375 26.3984375 C23.89116455 26.41825684 24.8448291 26.43807617 25.82739258 26.45849609 C29.36672299 26.53458764 32.90564417 26.62329911 36.44458008 26.71582031 C37.97607339 26.75409548 39.50765615 26.78895099 41.03930664 26.8203125 C43.2413733 26.86599557 45.44282496 26.92398287 47.64453125 26.984375 C48.32900833 26.99592621 49.01348541 27.00747742 49.71870422 27.01937866 C53.32210837 27.13117494 54.8534183 27.34238303 57.9375 29.3984375 C57.96637814 25.91928809 57.98425687 22.44016919 58 18.9609375 C58.01256836 17.47110352 58.01256836 17.47110352 58.02539062 15.95117188 C58.03022461 14.53481445 58.03022461 14.53481445 58.03515625 13.08984375 C58.04301147 11.77802124 58.04301147 11.77802124 58.05102539 10.43969727 C58.16534809 8.40403544 58.16534809 8.40403544 56.9375 7.3984375 C54.79191173 7.31068145 52.64345579 7.29148531 50.49609375 7.30078125 C49.19091797 7.30400391 47.88574219 7.30722656 46.54101562 7.31054688 C45.1523431 7.31890349 43.76367123 7.32736845 42.375 7.3359375 C40.98242344 7.34095084 39.58984519 7.34551403 38.19726562 7.34960938 C34.7773013 7.36144316 31.35742156 7.3779287 27.9375 7.3984375 C27.4425 5.4184375 27.4425 5.4184375 26.9375 3.3984375 C22.11369198 3.3737856 17.28992033 3.35560057 12.46606445 3.34350586 C10.82380536 3.33846576 9.18155077 3.33163372 7.53930664 3.32299805 C5.18374521 3.31091824 2.82824291 3.30520611 0.47265625 3.30078125 C-0.26589096 3.29561996 -1.00443817 3.29045868 -1.7653656 3.28514099 C-5.20216494 2.97218031 -5.20216494 2.97218031 -8.0625 4.3984375 Z " fill="#423B70" transform="translate(25.0625,6.6015625)"/>
<path d="M0 0 C3.42436208 2.9836935 3.57781494 5.5248384 4 10 C4.99 10.33 5.98 10.66 7 11 C6.67 11.99 6.34 12.98 6 14 C4.68 14 3.36 14 2 14 C1.855625 15.134375 1.71125 16.26875 1.5625 17.4375 C1 21 1 21 0 22 C-0.04063832 23.66617115 -0.042721 25.33388095 0 27 C0.85464844 27.39832031 1.70929688 27.79664062 2.58984375 28.20703125 C3.69457031 28.73683594 4.79929687 29.26664063 5.9375 29.8125 C7.03964844 30.33457031 8.14179687 30.85664062 9.27734375 31.39453125 C12 33 12 33 13 36 C10.14628312 36.25064392 7.29416526 36.47597763 4.4375 36.6875 C3.63763672 36.76033203 2.83777344 36.83316406 2.01367188 36.90820312 C-3.58905135 37.29696351 -7.00531051 36.57302186 -12 34 C-13.6642135 33.32723284 -15.32986582 32.65793165 -17 32 C-16.75 29.625 -16.75 29.625 -16 27 C-13.9375 25.6875 -13.9375 25.6875 -12 25 C-12.33 23.35 -12.66 21.7 -13 20 C-12.34 19.67 -11.68 19.34 -11 19 C-11.20625 18.175 -11.4125 17.35 -11.625 16.5 C-12.08247854 12.23020029 -12.26575734 8.76595163 -10 5 C-6.84960872 2.8389878 -3.55897777 1.36580697 0 0 Z " fill="#FAB488" transform="translate(73,49)"/>
<path d="M0 0 C1.38226016 2.76452033 1.09525387 5.0461363 1.0625 8.125 C1.05347656 9.22070312 1.04445313 10.31640625 1.03515625 11.4453125 C1.02355469 12.28835937 1.01195313 13.13140625 1 14 C0.34 14 -0.32 14 -1 14 C-0.65555119 16.47266765 -0.65555119 16.47266765 0 19 C0.66 19.33 1.32 19.66 2 20 C1.67 21.65 1.34 23.3 1 25 C1.825 25.4125 2.65 25.825 3.5 26.25 C4.7375 27.11625 4.7375 27.11625 6 28 C6 29.32 6 30.64 6 32 C4.22934889 32.64633275 2.45847247 33.2920483 0.6875 33.9375 C-0.29863281 34.29714844 -1.28476562 34.65679687 -2.30078125 35.02734375 C-7.23807253 36.80648344 -11.00504245 36.95627625 -16.1875 36.5625 C-16.93708984 36.51029297 -17.68667969 36.45808594 -18.45898438 36.40429688 C-20.30637082 36.27486216 -22.15324371 36.13813482 -24 36 C-22.94768703 33.03323813 -22.18219261 32.10395374 -19.3984375 30.515625 C-18.40070312 30.09796875 -17.40296875 29.6803125 -16.375 29.25 C-15.37210938 28.82203125 -14.36921875 28.3940625 -13.3359375 27.953125 C-12.56507812 27.63859375 -11.79421875 27.3240625 -11 27 C-10.79913557 23.28400809 -10.8480563 22.22791555 -13 19 C-13.125 16.3125 -13.125 16.3125 -13 14 C-14.65 13.67 -16.3 13.34 -18 13 C-18 12.34 -18 11.68 -18 11 C-17.01 10.67 -16.02 10.34 -15 10 C-14.9071875 9.37480469 -14.814375 8.74960937 -14.71875 8.10546875 C-14 6 -14 6 -11.09375 4.55078125 C-9.31484375 3.93783203 -9.31484375 3.93783203 -7.5 3.3125 C-3.45612676 2.17379663 -3.45612676 2.17379663 0 0 Z " fill="#CF7D57" transform="translate(38,49)"/>
<path d="M0 0 C0 0.66 0 1.32 0 2 C5.05009595 2.93786082 5.05009595 2.93786082 10 2 C10 1.01 10 0.02 10 -1 C21.02446483 0.62691131 21.02446483 0.62691131 25 5 C25 5.99 25 6.98 25 8 C11.8 8 -1.4 8 -15 8 C-14 4 -14 4 -12.3125 2.375 C-8.24586437 -0.04299956 -4.61411385 -1.77465917 0 0 Z " fill="#72BEFC" transform="translate(45,82)"/>
<path d="M0 0 C2.35309899 2.25079034 3.87258854 3.7087339 4.203125 7.05859375 C4.22632812 8.23615234 4.22632812 8.23615234 4.25 9.4375 C4.27578125 10.21996094 4.3015625 11.00242187 4.328125 11.80859375 C4 14 4 14 2.859375 15.7578125 C-0.46268511 17.97717199 -4.30331108 17.42469322 -8.1875 17.49609375 C-9.115625 17.66238281 -10.04375 17.82867187 -11 18 C-11.44753128 18.66102722 -11.89506256 19.32205444 -12.3561554 20.00311279 C-14 22 -14 22 -16.33488464 22.48101807 C-17.71055351 22.4676944 -17.71055351 22.4676944 -19.11401367 22.45410156 C-20.15486618 22.45379944 -21.19571869 22.45349731 -22.26811218 22.45318604 C-23.39006485 22.43254089 -24.51201752 22.41189575 -25.66796875 22.390625 C-26.81791824 22.38496521 -27.96786774 22.37930542 -29.15266418 22.37347412 C-32.8313634 22.35105474 -36.50909437 22.3008458 -40.1875 22.25 C-42.67902241 22.2299423 -45.17056006 22.21169026 -47.66210938 22.1953125 C-53.77507084 22.15117166 -59.88746626 22.08420349 -66 22 C-66.33 21.34 -66.66 20.68 -67 20 C-66.38025803 19.99635437 -65.76051605 19.99270874 -65.12199402 19.98895264 C-58.68177555 19.9471989 -52.2422745 19.87790393 -45.80249023 19.79248047 C-43.39794077 19.76422413 -40.99329761 19.74303294 -38.58862305 19.72900391 C-35.13541532 19.70763945 -31.6833397 19.66102094 -28.23046875 19.609375 C-26.61316109 19.60753204 -26.61316109 19.60753204 -24.96318054 19.60565186 C-23.96236954 19.58593323 -22.96155853 19.5662146 -21.93041992 19.54589844 C-21.04883713 19.53701599 -20.16725433 19.52813354 -19.25895691 19.51898193 C-16.27233362 18.83282297 -15.68781934 17.46500075 -14 15 C-11.1875 14.49609375 -11.1875 14.49609375 -8 14.4375 C-3.79195318 14.45302654 -3.79195318 14.45302654 -0.140625 12.6875 C1.74278242 9.90108903 1.22883241 7.26086181 1 4 C0.57145005 1.68963085 0.57145005 1.68963085 0 0 Z " fill="#020202" transform="translate(92,78)"/>
<path d="M0 0 C1.98 0.66 3.96 1.32 6 2 C6 3.32 6 4.64 6 6 C4.22934889 6.64633275 2.45847247 7.2920483 0.6875 7.9375 C-0.29863281 8.29714844 -1.28476562 8.65679687 -2.30078125 9.02734375 C-7.23807253 10.80648344 -11.00504245 10.95627625 -16.1875 10.5625 C-16.93708984 10.51029297 -17.68667969 10.45808594 -18.45898438 10.40429688 C-20.30637082 10.27486216 -22.15324371 10.13813482 -24 10 C-22.94622245 6.87868421 -22.15418742 6.08115127 -19.1796875 4.515625 C-18.08914062 4.09796875 -16.99859375 3.6803125 -15.875 3.25 C-14.77929688 2.82203125 -13.68359375 2.3940625 -12.5546875 1.953125 C-11.71164063 1.63859375 -10.86859375 1.3240625 -10 1 C-9.34 1.99 -8.68 2.98 -8 4 C-4.91634129 4.2502157 -4.91634129 4.2502157 -2 4 C-1.34 2.68 -0.68 1.36 0 0 Z " fill="#96BE64" transform="translate(38,75)"/>
<path d="M0 0 C2.375 -0.1875 2.375 -0.1875 5 0 C5.66 0.99 6.32 1.98 7 3 C9.95769177 3.50010524 9.95769177 3.50010524 13 3 C14.68410666 1.5404253 14.68410666 1.5404253 16 0 C17.98498051 0.92512666 19.96286018 1.86550237 21.9375 2.8125 C23.03964844 3.33457031 24.14179687 3.85664062 25.27734375 4.39453125 C28 6 28 6 29 9 C26.14628312 9.25064392 23.29416526 9.47597763 20.4375 9.6875 C19.23770508 9.79674805 19.23770508 9.79674805 18.01367188 9.90820312 C12.41094865 10.29696351 8.99468949 9.57302186 4 7 C2.3357865 6.32723284 0.67013418 5.65793165 -1 5 C-0.67 3.35 -0.34 1.7 0 0 Z " fill="#F97778" transform="translate(57,76)"/>
<path d="M0 0 C1.47509766 1.05078125 1.47509766 1.05078125 3 3 C3.38818359 6.23046875 3.38818359 6.23046875 3.3984375 10.1875 C3.40130768 10.88641357 3.40417786 11.58532715 3.40713501 12.30541992 C3.40917425 13.78142101 3.40365403 15.25744921 3.39111328 16.73339844 C3.3750558 18.99215138 3.3909647 21.24911518 3.41015625 23.5078125 C3.40817379 24.94271228 3.40433006 26.37761095 3.3984375 27.8125 C3.39505371 29.11832031 3.39166992 30.42414062 3.38818359 31.76953125 C3 35 3 35 1.60009766 36.94921875 C0 38 0 38 -2 38 C-1.67 39.98 -1.34 41.96 -1 44 C-1.99 44 -2.98 44 -4 44 C-4.390625 38.140625 -4.390625 38.140625 -4 36 C-3.01 35.17242187 -3.01 35.17242187 -2 34.328125 C0.80530677 31.06257259 0.45818632 28.86573816 0.390625 24.609375 C0.38213531 23.55245453 0.38213531 23.55245453 0.37347412 22.47418213 C0.35115078 20.23208572 0.30096754 17.99161012 0.25 15.75 C0.22992952 14.22658565 0.2116797 12.70314614 0.1953125 11.1796875 C0.15130118 7.4526017 0.08230372 3.72645913 0 0 Z " fill="#040404" transform="translate(90,11)"/>
<path d="M0 0 C3.96 0 7.92 0 12 0 C11.6875 3.375 11.6875 3.375 11 7 C8 9 8 9 5.5 8.8125 C2.76854263 7.92477635 1.60879996 7.37086309 0 5 C0 3.35 0 1.7 0 0 Z " fill="#E8BAA1" transform="translate(44,77)"/>
<path d="M0 0 C0.66 0.33 1.32 0.66 2 1 C2.62145499 9.89025894 2.62145499 9.89025894 0.25 14.125 C-2 16 -2 16 -6 16 C-5 13 -5 13 -3.51171875 11.63671875 C-1.50875073 9.46813064 -1.29973164 7.69841046 -0.8125 4.8125 C-0.65394531 3.91144531 -0.49539062 3.01039062 -0.33203125 2.08203125 C-0.22246094 1.39496094 -0.11289063 0.70789062 0 0 Z " fill="#080808" transform="translate(88,56)"/>
<path d="M0 0 C3.3 0 6.6 0 10 0 C8.515 1.98 8.515 1.98 7 4 C4.625 3.6875 4.625 3.6875 2 3 C1.34 2.01 0.68 1.02 0 0 Z " fill="#BF8D7F" transform="translate(62,72)"/>
<path d="M0 0 C3.3 0 6.6 0 10 0 C8.515 1.98 8.515 1.98 7 4 C4.625 3.6875 4.625 3.6875 2 3 C1.34 2.01 0.68 1.02 0 0 Z " fill="#A3685D" transform="translate(28,72)"/>
<path d="M0 0 C0.66 0.33 1.32 0.66 2 1 C2.625 3.0625 2.625 3.0625 3 5 C1.02 5.66 -0.96 6.32 -3 7 C-1.125 2.25 -1.125 2.25 0 0 Z " fill="#F3ECE9" transform="translate(59,70)"/>
<path d="M0 0 C1.32 1.65 2.64 3.3 4 5 C3.67 5.66 3.34 6.32 3 7 C0.525 6.01 0.525 6.01 -2 5 C-1.34 3.35 -0.68 1.7 0 0 Z " fill="#F1EBE7" transform="translate(40,70)"/>
</svg>
